<?xml version="1.0" encoding="iso-8859-1"?>
<!-- Generator: Adobe Illustrator 18.0.0, SVG Export Plug-In . SVG Version: 6.00 Build 0)  -->
<!DOCTYPE svg PUBLIC "-//W3C//DTD SVG 1.1//EN" "http://www.w3.org/Graphics/SVG/1.1/DTD/svg11.dtd">
<svg xmlns="http://www.w3.org/2000/svg" xmlns:xlink="http://www.w3.org/1999/xlink" version="1.1" id="Capa_1" x="0px" y="0px" viewBox="0 0 190.834 190.834" style="enable-background:new 0 0 190.834 190.834;" xml:space="preserve" width="512px" height="512px">
<path d="M52.019,66.417h86.797v58H52.019V66.417z M25.926,39.667h138.982c1.381,0,2.5,1.119,2.5,2.5v106.5  c0,1.381-1.119,2.5-2.5,2.5H25.926c-1.381,0-2.5-1.119-2.5-2.5v-106.5C23.426,40.786,24.545,39.667,25.926,39.667z M42.019,134.417  h106.797v-78H42.019V134.417z M55.917,36.834V14.975c1.833-1.559,3-3.879,3-6.475c0-4.695-3.805-8.5-8.5-8.5  c-4.695,0-8.5,3.805-8.5,8.5c0,2.596,1.167,4.916,3,6.475v21.859H55.917z M85.917,36.834V14.975c1.833-1.559,3-3.879,3-6.475  c0-4.695-3.805-8.5-8.5-8.5s-8.5,3.805-8.5,8.5c0,2.596,1.166,4.916,3,6.475v21.859H85.917z M115.917,36.834V14.975  c1.833-1.559,3-3.879,3-6.475c0-4.695-3.805-8.5-8.5-8.5c-4.695,0-8.5,3.805-8.5,8.5c0,2.596,1.166,4.916,3,6.475v21.859H115.917z   M145.917,36.834V14.975c1.833-1.559,3-3.879,3-6.475c0-4.695-3.805-8.5-8.5-8.5c-4.695,0-8.5,3.805-8.5,8.5  c0,2.596,1.166,4.916,3,6.475v21.859H145.917z M134.917,154v21.859c-1.834,1.559-3,3.879-3,6.475c0,4.695,3.805,8.5,8.5,8.5  c4.695,0,8.5-3.805,8.5-8.5c0-2.596-1.167-4.916-3-6.475V154H134.917z M104.917,154v21.859c-1.834,1.559-3,3.879-3,6.475  c0,4.695,3.805,8.5,8.5,8.5c4.695,0,8.5-3.805,8.5-8.5c0-2.596-1.167-4.916-3-6.475V154H104.917z M74.917,154v21.859  c-1.834,1.559-3,3.879-3,6.475c0,4.695,3.805,8.5,8.5,8.5s8.5-3.805,8.5-8.5c0-2.596-1.167-4.916-3-6.475V154H74.917z M44.917,154  v21.859c-1.833,1.559-3,3.879-3,6.475c0,4.695,3.805,8.5,8.5,8.5c4.695,0,8.5-3.805,8.5-8.5c0-2.596-1.167-4.916-3-6.475V154H44.917  z" fill="#ff6400"/>
<g>
</g>
<g>
</g>
<g>
</g>
<g>
</g>
<g>
</g>
<g>
</g>
<g>
</g>
<g>
</g>
<g>
</g>
<g>
</g>
<g>
</g>
<g>
</g>
<g>
</g>
<g>
</g>
<g>
</g>
</svg>
